<svg viewBox="0 0 44.3169 44.3169" fill="none" xmlns="http://www.w3.org/2000/svg">
<path opacity="0.3" d="M22.1585 44.1585C34.3087 44.1585 44.1585 34.3087 44.1585 22.1584C44.1585 10.0081 34.3087 0.158457 22.1585 0.158457C10.0082 0.158457 0.158457 10.0081 0.158457 22.1584C0.158457 34.3087 10.0082 44.1585 22.1585 44.1585Z" fill="white" fill-opacity="0.8" stroke="white" stroke-width="0.316914" stroke-miterlimit="10"/>
<path d="M28.1823 13.2599C28.1823 13.121 28.1271 12.9877 28.0288 12.8895C27.9306 12.7913 27.7974 12.7361 27.6585 12.7361H25.0394C23.7206 12.6704 22.4294 13.1293 21.4479 14.0127C20.4664 14.896 19.8744 16.1319 19.8013 17.4504V20.2789H17.1823C17.0433 20.2789 16.9101 20.3341 16.8119 20.4324C16.7136 20.5306 16.6585 20.6638 16.6585 20.8027V23.5266C16.6585 23.6655 16.7136 23.7987 16.8119 23.8969C16.9101 23.9952 17.0433 24.0504 17.1823 24.0504H19.8013V31.0694C19.8013 31.2083 19.8565 31.3416 19.9547 31.4398C20.053 31.538 20.1862 31.5932 20.3251 31.5932H23.468C23.6069 31.5932 23.7401 31.538 23.8384 31.4398C23.9366 31.3416 23.9918 31.2083 23.9918 31.0694V24.0504H26.7365C26.853 24.052 26.9668 24.0148 27.0597 23.9446C27.1527 23.8744 27.2196 23.7752 27.2499 23.6627L28.0042 20.9389C28.025 20.8615 28.0278 20.7804 28.0124 20.7017C27.9969 20.6231 27.9636 20.549 27.915 20.4853C27.8665 20.4215 27.8039 20.3698 27.7322 20.334C27.6604 20.2982 27.5815 20.2794 27.5013 20.2789H23.9918V17.4504C24.0178 17.1911 24.1396 16.9508 24.3333 16.7764C24.5271 16.6021 24.7788 16.5062 25.0394 16.5075H27.6585C27.7974 16.5075 27.9306 16.4523 28.0288 16.3541C28.1271 16.2559 28.1823 16.1226 28.1823 15.9837V13.2599Z" fill="white"/>
</svg>
