<svg preserveAspectRatio="none" overflow="visible" style="display: block;" width="15" height="18" viewBox="0 0 15 18" fill="none" xmlns="http://www.w3.org/2000/svg">
<g id="Apple">
<path id="&#60;Path&#62;" d="M12.5284 9.57235C12.5375 8.88242 12.7252 8.20595 13.074 7.60588C13.4229 7.00581 13.9215 6.50163 14.5236 6.14027C14.1411 5.60698 13.6366 5.16811 13.05 4.8585C12.4634 4.5489 11.8109 4.37709 11.1444 4.35674C9.72266 4.21103 8.34434 5.18733 7.61982 5.18733C6.8813 5.18733 5.76582 4.3712 4.56462 4.39533C3.78766 4.41983 3.03044 4.64042 2.36676 5.03558C1.70308 5.43074 1.15556 5.98701 0.777551 6.65018C-0.859861 9.41797 0.361504 13.4857 1.93004 15.723C2.71481 16.8185 3.63198 18.0423 4.8321 17.9989C6.00647 17.9513 6.44508 17.2678 7.86265 17.2678C9.26707 17.2678 9.67856 17.9989 10.903 17.9713C12.1632 17.9513 12.9571 16.8709 13.7144 15.765C14.2783 14.9844 14.7122 14.1216 15 13.2087C14.2679 12.9064 13.6431 12.4004 13.2036 11.7537C12.7641 11.1071 12.5292 10.3484 12.5284 9.57235Z" fill="black"/>
<path id="&#60;Path&#62;_2" d="M10.2156 2.88535C10.9027 2.08007 11.2412 1.04502 11.1592 0C10.1095 0.107639 9.13987 0.597447 8.4435 1.37183C8.10302 1.75013 7.84224 2.19025 7.67609 2.667C7.50994 3.14376 7.44166 3.64782 7.47515 4.15035C8.0002 4.15563 8.51963 4.04452 8.99433 3.8254C9.46902 3.60628 9.88659 3.28486 10.2156 2.88535Z" fill="black"/>
</g>
</svg>
